<svg width="1024" height="1024" viewBox="0 0 1024 1024" xmlns="http://www.w3.org/2000/svg">
  <defs>
    <linearGradient id="bg" x1="0" y1="0" x2="1" y2="1">
      <stop offset="0%" stop-color="#12151D"/>
      <stop offset="100%" stop-color="#1B2230"/>
    </linearGradient>
    <radialGradient id="glow" cx="50%" cy="38%" r="62%">
      <stop offset="0%" stop-color="#2A3347" stop-opacity="0.9"/>
      <stop offset="100%" stop-color="#2A3347" stop-opacity="0"/>
    </radialGradient>
    <linearGradient id="honeyA" x1="0" y1="0" x2="1" y2="1">
      <stop offset="0%" stop-color="#FFE08A"/>
      <stop offset="100%" stop-color="#F0A500"/>
    </linearGradient>
    <linearGradient id="honeyB" x1="0" y1="0" x2="1" y2="1">
      <stop offset="0%" stop-color="#FFD36B"/>
      <stop offset="100%" stop-color="#E88D06"/>
    </linearGradient>
    <linearGradient id="honeyC" x1="0" y1="0" x2="1" y2="1">
      <stop offset="0%" stop-color="#FFF2B8"/>
      <stop offset="100%" stop-color="#FFC84D"/>
    </linearGradient>
    <filter id="shadow" x="-20%" y="-20%" width="140%" height="140%">
      <feDropShadow dx="0" dy="24" stdDeviation="24" flood-color="#000000" flood-opacity="0.35"/>
    </filter>
  </defs>

  <rect x="64" y="64" width="896" height="896" rx="220" fill="url(#bg)"/>
  <circle cx="512" cy="430" r="360" fill="url(#glow)"/>

  <g filter="url(#shadow)" transform="translate(150 110) scale(22)">
    <path fill="url(#honeyA)" d="M10.262 18.021l-2.19-3.759 2.19-3.759h4.38l2.19 3.759-2.19 3.759h-4.38z"/>
    <path fill="url(#honeyC)" d="M17.299 14.203l-2.19-3.759 2.19-3.759h4.38l2.19 3.759-2.19 3.759h-4.38z"/>
    <path fill="url(#honeyB)" d="M3.071 13.992l-2.19-3.759 2.19-3.759h4.38l2.19 3.759-2.19 3.759h-4.38z"/>
    <path fill="url(#honeyA)" d="M10.159 9.904l-2.19-3.759 2.19-3.759h4.38l2.19 3.759-2.19 3.759h-4.38z"/>
    <path fill="url(#honeyC)" d="M17.247 30.235l-2.19-3.759 2.19-3.759h4.38l2.19 3.759-2.19 3.759h-4.38z"/>
    <path fill="url(#honeyB)" d="M24.155 26.161l-2.19-3.759 2.19-3.759h4.38l2.19 3.759-2.19 3.759h-4.38z"/>
    <path fill="url(#honeyA)" d="M10.262 26.058l-2.19-3.759 2.19-3.759h4.38l2.19 3.759-2.19 3.759h-4.38z"/>
    <path fill="url(#honeyC)" d="M17.247 22.143l-2.19-3.759 2.19-3.759h4.38l2.19 3.759-2.19 3.759h-4.38z"/>
    <path fill="url(#honeyB)" d="M3.28 22.134l-2.19-3.759 2.19-3.759h4.38l2.19 3.759-2.19 3.759h-4.38z"/>
    <path fill="url(#honeyA)" d="M24.312 10.129l-2.19-3.759 2.19-3.759h4.38l2.19 3.759-2.19 3.759h-4.38z"/>
  </g>
</svg>
